<svg width="210" height="67" viewBox="0 0 210 67" fill="none" xmlns="http://www.w3.org/2000/svg">
<path fill-rule="evenodd" clip-rule="evenodd" d="M7.30409 0H59.6959C63.7132 0 67 3.28665 67 7.30409V59.6959C67 63.7132 63.7134 67 59.6959 67H7.30409C3.2868 67 0 63.7134 0 59.6959V7.30409C0 3.2868 3.28665 0 7.30409 0ZM8.3605 16.9718V51.1189H10.8971V23.7416L33.7942 49.9343C34.413 51.6426 35.4177 53.1922 36.8068 54.5811C39.3043 57.0864 42.32 58.3351 45.8462 58.3351C49.3802 58.3351 52.3883 57.0865 54.8935 54.5811C57.3909 52.0836 58.6395 49.0679 58.6395 45.5417C58.6395 42.0627 57.3595 39.1805 54.7992 36.8951C53.8174 36.0155 52.6002 35.1909 51.1394 34.4056C50.574 34.0994 49.9378 33.7773 49.2311 33.4395L48.2887 32.9999L47.3934 32.615C46.4755 32.2055 45.691 31.8387 45.0396 31.5127C46.3187 30.934 47.4968 30.1066 48.5741 29.0291C50.9067 26.6967 52.0768 23.885 52.0768 20.5865C52.0768 17.3038 50.9067 14.5001 48.5741 12.1676C46.2417 9.83516 43.438 8.66503 40.1552 8.66503H26.6708V37.9345L8.3605 16.972V16.9718ZM42.3759 29.7491C41.9453 29.2757 41.7309 28.7901 41.7309 28.2877C41.7309 27.4159 42.0922 26.6776 42.8149 26.0808C43.4746 25.5074 44.2205 25.2248 45.0688 25.2248C46.0818 25.2248 46.8829 25.4448 47.4797 25.8688C47.5911 25.9459 47.6884 26.0253 47.7742 26.1094C47.4869 26.4998 47.1647 26.8762 46.8072 27.2383C45.5126 28.5274 44.0364 29.3641 42.3759 29.7491ZM48.9892 23.8503C47.9569 23.0827 46.6481 22.6958 45.0688 22.6958C43.4587 22.6958 42.0765 23.2378 40.9221 24.3295C39.7912 25.4211 39.2259 26.7405 39.2259 28.2877C39.2259 28.8883 39.337 29.4572 39.5601 29.995H35.8323V18.2364H33.3033V29.995H29.2077V11.178H40.1555C42.7472 11.178 44.9619 12.0968 46.8074 13.9346C48.6295 15.7801 49.5405 17.9948 49.5405 20.5864C49.5405 21.7501 49.3568 22.8379 48.9893 23.8503H48.9892ZM41.6395 32.4408C42.5684 33.1041 44.1407 33.9272 46.3568 34.9159L48.1474 35.717C48.8071 36.0232 49.3883 36.3138 49.8988 36.5964C51.1711 37.2641 52.2155 37.9551 53.0244 38.6619C55.0822 40.4603 56.1107 42.7536 56.1107 45.5415C56.1107 48.3767 55.1056 50.7956 53.0951 52.7905C51.0846 54.8009 48.6735 55.8062 45.8462 55.8062C43.0111 55.8062 40.5922 54.8009 38.5974 52.7905C37.1627 51.3614 36.2401 49.715 35.8321 47.8536V32.5236H40.1553C40.6614 32.5236 41.1562 32.4961 41.6395 32.4407V32.4408ZM33.3032 32.5238V45.5272L29.2076 40.8384V32.5238H33.3032Z" fill="#00A015"/>
<path d="M80.0003 9.50047V39.0342H82.0163V15.3555L101.832 40.0258V10.5938H99.8225V34.1977L80 9.50016L80.0003 9.50047ZM131.691 24.8245C131.691 28.445 130.517 31.5353 128.165 34.0962C125.812 36.6571 122.972 37.9409 119.639 37.9409C116.312 37.9409 113.472 36.6571 111.119 34.0962C108.767 31.5353 107.593 28.445 107.593 24.8245C107.593 21.2042 108.767 18.1136 111.119 15.5527C113.472 12.9918 116.312 11.7081 119.639 11.7081C122.972 11.7081 125.811 12.9918 128.165 15.5527C130.517 18.1136 131.691 21.2042 131.691 24.8245ZM131.691 39.0345H133.701V24.8245C133.701 20.6065 132.328 17.0063 129.569 14.0177C126.829 11.0223 123.515 9.52106 119.639 9.52106C115.763 9.52106 112.449 11.0223 109.697 14.0177C106.95 17.0063 105.577 20.6065 105.577 24.8245C105.577 29.0427 106.95 32.6493 109.697 35.6518C112.449 38.6338 115.763 40.1279 119.639 40.1279C122.154 40.1279 124.495 39.4421 126.661 38.0766C128.758 36.7383 130.437 34.9315 131.691 32.663V39.0342L131.691 39.0345ZM140.285 38.9936V20.8849C140.285 18.3512 141.103 16.1844 142.751 14.3776C144.398 12.5845 146.383 11.6946 148.711 11.6946C151.039 11.6946 153.03 12.5845 154.69 14.3776C156.338 16.1844 157.162 18.3512 157.162 20.8849V38.9936H159.172V20.8849C159.172 18.3512 159.996 16.1844 161.637 14.3776C163.285 12.5845 165.269 11.6946 167.597 11.6946C169.925 11.6946 171.923 12.5845 173.577 14.3776C175.224 16.1844 176.048 18.3512 176.048 20.8849V38.9936H178.058V20.8849C178.058 17.7397 177.034 15.0639 174.987 12.8426C172.953 10.6144 170.487 9.50047 167.597 9.50047C165.55 9.50047 163.672 10.1119 161.949 11.3348C160.283 12.5165 159.016 14.0855 158.167 16.0487C157.312 14.0855 156.051 12.5165 154.378 11.3348C152.662 10.1119 150.771 9.50047 148.711 9.50047C145.834 9.50047 143.381 10.6144 141.34 12.8426C139.293 15.0636 138.27 17.7397 138.27 20.8849V38.9936H140.286H140.285ZM195.864 11.7081C192.538 11.7081 189.698 12.9918 187.345 15.5527C184.992 18.1136 183.819 21.2042 183.819 24.8245C183.819 28.445 184.992 31.5353 187.345 34.0962C189.698 36.6571 192.538 37.9409 195.864 37.9409C199.197 37.9409 202.037 36.6571 204.39 34.0962C206.743 31.5353 207.916 28.445 207.916 24.8245C207.916 21.2042 206.743 18.1136 204.39 15.5527C202.037 12.9918 199.197 11.7081 195.864 11.7081ZM195.864 40.1279C191.988 40.1279 188.674 38.6266 185.922 35.6315C183.175 32.6427 181.802 29.0427 181.802 24.8245C181.802 20.6065 183.175 17.0063 185.922 14.0177C188.674 11.0223 191.988 9.52106 195.864 9.52106C199.74 9.52106 203.055 11.0223 205.794 14.0177C208.553 17.0063 209.926 20.6065 209.926 24.8245C209.926 29.0427 208.553 32.6427 205.794 35.6315C203.055 38.6266 199.74 40.1279 195.864 40.1279Z" fill="#00A015"/>
<path d="M80.8497 52.3389V51.1659H84.5127C85.0179 51.1659 85.4717 51.0638 85.8749 50.8591C86.278 50.6544 86.597 50.3629 86.8316 49.9842C87.0661 49.6052 87.1834 49.1511 87.1834 48.6217C87.1834 48.0923 87.0661 47.6384 86.8316 47.2595C86.597 46.8802 86.2777 46.5857 85.8749 46.375C85.4717 46.1646 85.0179 46.0593 84.5127 46.0593H80.8497V44.9045H84.6031C85.3488 44.9045 86.0163 45.0581 86.6063 45.3649C87.1956 45.6716 87.6617 46.1016 88.0046 46.6549C88.3475 47.2084 88.5188 47.864 88.5188 48.6217C88.5188 49.3674 88.3475 50.0203 88.0046 50.5795C87.6617 51.1387 87.1956 51.5717 86.6063 51.8788C86.0163 52.1855 85.3488 52.3389 84.6031 52.3389H80.8497ZM80.0017 57.319V44.9045H81.3188V57.319H80.0017ZM91.9758 57.319V48.8383H93.2386V57.319H91.9758ZM93.2386 52.375L92.7155 52.1405C92.7155 51.0698 92.9772 50.2217 93.5003 49.5963C94.0234 48.9705 94.7426 48.6578 95.6569 48.6578C96.078 48.6578 96.4629 48.7333 96.8117 48.8834C97.1606 49.0338 97.4855 49.2713 97.786 49.5963L96.9562 50.4804C96.7515 50.2519 96.5262 50.0892 96.2794 49.9934C96.0329 49.8971 95.7533 49.849 95.4406 49.849C94.7909 49.849 94.2619 50.0624 93.8525 50.4894C93.4436 50.9164 93.2389 51.5449 93.2389 52.375H93.2386ZM100.431 57.319V48.8383H101.712V57.319H100.431ZM101.063 46.9978C100.822 46.9978 100.617 46.9106 100.449 46.7361C100.28 46.5618 100.196 46.3544 100.196 46.1136C100.196 45.8611 100.281 45.6505 100.449 45.4822C100.617 45.3136 100.822 45.2297 101.063 45.2297C101.327 45.2297 101.541 45.3139 101.703 45.4822C101.866 45.6505 101.947 45.8611 101.947 46.1136C101.947 46.3541 101.866 46.5618 101.703 46.7361C101.541 46.9106 101.327 46.9978 101.063 46.9978ZM105.585 57.319V48.8383H106.847V57.319H105.585ZM111.413 57.319V52.1223C111.413 51.4246 111.203 50.8681 110.782 50.453C110.361 50.0379 109.831 49.8305 109.193 49.8305C108.76 49.8305 108.367 49.9236 108.012 50.1101C107.657 50.2966 107.374 50.5583 107.163 50.8949C106.953 51.2318 106.848 51.6347 106.848 52.1041L106.27 51.8695C106.27 51.2196 106.415 50.6544 106.703 50.1734C106.992 49.6921 107.38 49.3194 107.867 49.0544C108.354 48.79 108.905 48.6575 109.518 48.6575C110.12 48.6575 110.658 48.79 111.133 49.0544C111.608 49.3191 111.987 49.6921 112.27 50.1734C112.553 50.6544 112.694 51.2259 112.694 51.8877V57.319H111.413ZM117.259 57.319V52.1223C117.259 51.4246 117.049 50.8681 116.628 50.453C116.207 50.0379 115.672 49.8305 115.022 49.8305C114.601 49.8305 114.213 49.9236 113.858 50.1101C113.503 50.2966 113.22 50.5583 113.01 50.8949C112.799 51.2318 112.694 51.6347 112.694 52.1041L111.936 51.8695C111.972 51.2196 112.143 50.6544 112.451 50.1734C112.757 49.6921 113.16 49.3194 113.659 49.0544C114.159 48.79 114.709 48.6575 115.31 48.6575C115.912 48.6575 116.456 48.79 116.944 49.0544C117.431 49.3191 117.816 49.6921 118.098 50.1734C118.381 50.6544 118.523 51.2259 118.523 51.8877V57.319H117.259ZM126.13 57.4995C125.276 57.4995 124.512 57.3071 123.838 56.9221C123.164 56.5372 122.632 56.0078 122.242 55.334C121.85 54.6602 121.655 53.9026 121.655 53.0605C121.655 52.2306 121.848 51.4816 122.233 50.8141C122.617 50.1465 123.141 49.6201 123.802 49.2352C124.464 48.8506 125.204 48.6578 126.022 48.6578C126.792 48.6578 127.475 48.8323 128.07 49.1809C128.665 49.5297 129.135 50.014 129.478 50.6335C129.82 51.253 129.992 51.9656 129.992 52.7719C129.992 52.8683 129.986 52.9793 129.974 53.1058C129.962 53.232 129.938 53.3798 129.902 53.5478H122.558V52.4651H129.216L128.765 52.862C128.777 52.2363 128.672 51.6982 128.449 51.2471C128.227 50.7959 127.908 50.447 127.493 50.2005C127.078 49.9538 126.576 49.8308 125.987 49.8308C125.373 49.8308 124.837 49.963 124.38 50.2277C123.923 50.4921 123.566 50.8621 123.307 51.3372C123.048 51.8122 122.919 52.3747 122.919 53.0244C122.919 53.674 123.054 54.2454 123.325 54.7387C123.595 55.2319 123.974 55.6169 124.462 55.8932C124.949 56.1698 125.511 56.3086 126.149 56.3086C126.666 56.3086 127.141 56.2152 127.574 56.0287C128.007 55.8425 128.374 55.5629 128.675 55.1899L129.487 56.0197C129.09 56.4891 128.6 56.8529 128.016 57.1116C127.433 57.3703 126.804 57.4995 126.131 57.4995H126.13ZM140.847 57.4995C139.884 57.4995 139.055 57.3163 138.357 56.9493C137.659 56.5822 137.045 56.0681 136.516 55.4065L137.436 54.5044C137.857 55.0938 138.347 55.5327 138.907 55.8216C139.466 56.1102 140.131 56.2549 140.901 56.2549C141.695 56.2549 142.339 56.0741 142.832 55.7133C143.325 55.3525 143.572 54.8533 143.572 54.2159C143.572 53.7226 143.458 53.3168 143.229 52.9978C143 52.6791 142.703 52.4204 142.336 52.2219C141.968 52.0235 141.563 51.846 141.117 51.6896C140.673 51.5329 140.23 51.3676 139.791 51.193C139.352 51.0188 138.946 50.7991 138.573 50.5345C138.2 50.2701 137.902 49.9329 137.68 49.5241C137.457 49.1149 137.346 48.5918 137.346 47.9541C137.346 47.2803 137.508 46.7032 137.833 46.2219C138.158 45.7409 138.603 45.3709 139.168 45.1124C139.733 44.8537 140.377 44.7242 141.099 44.7242C141.905 44.7242 142.624 44.8809 143.255 45.1936C143.887 45.506 144.413 45.9271 144.834 46.4565L143.932 47.3588C143.547 46.9017 143.126 46.5528 142.669 46.312C142.212 46.0715 141.677 45.9512 141.063 45.9512C140.341 45.9512 139.764 46.1199 139.331 46.4565C138.897 46.7934 138.681 47.2624 138.681 47.864C138.681 48.3331 138.792 48.7121 139.015 49.0007C139.237 49.2892 139.535 49.53 139.908 49.7225C140.281 49.915 140.687 50.0863 141.126 50.2367C141.565 50.3871 142.007 50.5524 142.453 50.7329C142.897 50.9134 143.304 51.142 143.67 51.4186C144.037 51.6953 144.335 52.0471 144.564 52.4744C144.792 52.9014 144.907 53.4457 144.907 54.1076C144.907 55.1782 144.543 56.0111 143.815 56.6067C143.087 57.202 142.098 57.4998 140.846 57.4998L140.847 57.4995ZM152.172 57.4995C151.318 57.4995 150.554 57.3071 149.88 56.9221C149.206 56.5372 148.674 56.0078 148.283 55.334C147.892 54.6602 147.696 53.9026 147.696 53.0605C147.696 52.2306 147.889 51.4816 148.274 50.8141C148.659 50.1465 149.183 49.6201 149.844 49.2352C150.506 48.8506 151.245 48.6578 152.064 48.6578C152.833 48.6578 153.516 48.8323 154.112 49.1809C154.707 49.5297 155.176 50.014 155.519 50.6335C155.862 51.253 156.034 51.9656 156.034 52.7719C156.034 52.8683 156.028 52.9793 156.016 53.1058C156.004 53.232 155.98 53.3798 155.943 53.5478H148.599V52.4651H155.258L154.806 52.862C154.819 52.2363 154.713 51.6982 154.491 51.2471C154.268 50.7959 153.949 50.447 153.535 50.2005C153.12 49.9538 152.617 49.8308 152.028 49.8308C151.415 49.8308 150.879 49.963 150.422 50.2277C149.965 50.4921 149.607 50.8621 149.349 51.3372C149.09 51.8122 148.961 52.3747 148.961 53.0244C148.961 53.674 149.096 54.2454 149.367 54.7387C149.637 55.2319 150.016 55.6169 150.503 55.8932C150.99 56.1698 151.553 56.3086 152.19 56.3086C152.708 56.3086 153.183 56.2152 153.616 56.0287C154.049 55.8425 154.416 55.5629 154.716 55.1899L155.529 56.0197C155.132 56.4891 154.641 56.8529 154.058 57.1116C153.474 57.3703 152.846 57.4995 152.172 57.4995H152.172ZM159.274 57.319V48.8383H160.537V57.319H159.274ZM160.537 52.375L160.014 52.1405C160.014 51.0698 160.275 50.2217 160.798 49.5963C161.322 48.9705 162.04 48.6578 162.955 48.6578C163.376 48.6578 163.761 48.7333 164.11 48.8834C164.459 49.0338 164.784 49.2713 165.084 49.5963L164.254 50.4804C164.05 50.2519 163.824 50.0892 163.577 49.9934C163.331 49.8971 163.051 49.849 162.738 49.849C162.089 49.849 161.56 50.0624 161.15 50.4894C160.741 50.9164 160.537 51.5449 160.537 52.375ZM170.508 57.319L166.592 48.8383H168L171.302 56.2546H170.508L173.828 48.8383H175.2L171.248 57.319H170.508ZM178.097 57.319V48.8383H179.379V57.319H178.097ZM178.729 46.9978C178.488 46.9978 178.284 46.9106 178.115 46.7361C177.947 46.5618 177.862 46.3544 177.862 46.1136C177.862 45.8611 177.947 45.6505 178.115 45.4822C178.284 45.3136 178.488 45.2297 178.729 45.2297C178.993 45.2297 179.207 45.3139 179.369 45.4822C179.532 45.6505 179.613 45.8611 179.613 46.1136C179.613 46.3541 179.532 46.5618 179.369 46.7361C179.207 46.9106 178.993 46.9978 178.729 46.9978ZM187.112 57.4995C186.282 57.4995 185.534 57.3041 184.866 56.9132C184.198 56.522 183.669 55.9899 183.278 55.3161C182.887 54.6423 182.691 53.8906 182.691 53.0605C182.691 52.2306 182.887 51.4816 183.278 50.8141C183.669 50.1465 184.198 49.6201 184.866 49.2352C185.534 48.8506 186.282 48.6578 187.112 48.6578C187.75 48.6578 188.345 48.7783 188.899 49.0186C189.453 49.2591 189.922 49.5963 190.307 50.0293L189.476 50.8773C189.188 50.5527 188.839 50.3029 188.43 50.1286C188.021 49.9541 187.582 49.8669 187.112 49.8669C186.511 49.8669 185.976 50.0051 185.506 50.282C185.037 50.5586 184.67 50.9346 184.406 51.4097C184.141 51.8847 184.009 52.4353 184.009 53.0608C184.009 53.6743 184.141 54.2248 184.406 54.7118C184.67 55.1988 185.037 55.5811 185.506 55.8574C185.976 56.134 186.511 56.2728 187.112 56.2728C187.594 56.2728 188.039 56.1854 188.448 56.0108C188.857 55.8365 189.205 55.5868 189.494 55.2621L190.343 56.1102C189.946 56.5554 189.467 56.8982 188.908 57.1388C188.349 57.3793 187.75 57.4995 187.112 57.4995ZM197.174 57.4995C196.32 57.4995 195.556 57.3071 194.883 56.9221C194.209 56.5372 193.676 56.0078 193.286 55.334C192.894 54.6602 192.699 53.9026 192.699 53.0605C192.699 52.2306 192.892 51.4816 193.277 50.8141C193.661 50.1465 194.185 49.6201 194.846 49.2352C195.508 48.8506 196.248 48.6578 197.066 48.6578C197.836 48.6578 198.519 48.8323 199.114 49.1809C199.709 49.5297 200.179 50.014 200.522 50.6335C200.864 51.253 201.036 51.9656 201.036 52.7719C201.036 52.8683 201.03 52.9793 201.018 53.1058C201.006 53.232 200.982 53.3798 200.946 53.5478H193.602V52.4651H200.26L199.809 52.862C199.821 52.2363 199.716 51.6982 199.493 51.2471C199.271 50.7959 198.952 50.447 198.537 50.2005C198.122 49.9538 197.62 49.8308 197.031 49.8308C196.417 49.8308 195.882 49.963 195.425 50.2277C194.968 50.4921 194.61 50.8621 194.351 51.3372C194.092 51.8122 193.963 52.3747 193.963 53.0244C193.963 53.674 194.098 54.2454 194.369 54.7387C194.64 55.2319 195.019 55.6169 195.506 55.8932C195.993 56.1698 196.555 56.3086 197.193 56.3086C197.71 56.3086 198.185 56.2152 198.618 56.0287C199.051 55.8425 199.418 55.5629 199.719 55.1899L200.531 56.0197C200.134 56.4891 199.644 56.8529 199.06 57.1116C198.477 57.3703 197.848 57.4995 197.175 57.4995H197.174ZM206.875 57.4995C206.417 57.4995 205.978 57.4363 205.557 57.3101C205.136 57.1838 204.754 57.0063 204.412 56.7777C204.068 56.5491 203.771 56.2785 203.518 55.9654L204.33 55.1356C204.667 55.5447 205.049 55.8482 205.476 56.0466C205.903 56.2453 206.381 56.3447 206.911 56.3447C207.476 56.3447 207.918 56.2364 208.237 56.0197C208.556 55.8031 208.715 55.5026 208.715 55.1177C208.715 54.7569 208.601 54.474 208.372 54.2696C208.143 54.0649 207.852 53.9026 207.497 53.7823C207.142 53.662 206.766 53.5448 206.369 53.4305C205.972 53.3165 205.593 53.1718 205.233 52.9975C204.872 52.8232 204.58 52.5797 204.358 52.2667C204.135 51.954 204.024 51.5449 204.024 51.0397C204.024 50.5586 204.141 50.1406 204.376 49.7858C204.61 49.4307 204.947 49.154 205.386 48.9556C205.825 48.7572 206.346 48.6578 206.947 48.6578C207.585 48.6578 208.162 48.7721 208.679 49.0007C209.197 49.2292 209.611 49.5661 209.924 50.0114L209.112 50.8233C208.86 50.4986 208.544 50.2489 208.165 50.0746C207.786 49.9 207.362 49.8129 206.893 49.8129C206.352 49.8129 205.94 49.918 205.657 50.1286C205.374 50.339 205.233 50.6129 205.233 50.9495C205.233 51.2742 205.347 51.5299 205.576 51.7167C205.804 51.9029 206.096 52.0533 206.451 52.1679C206.806 52.2819 207.182 52.3965 207.579 52.5108C207.975 52.6251 208.354 52.7752 208.715 52.962C209.076 53.1485 209.368 53.4012 209.59 53.7196C209.813 54.0386 209.924 54.4686 209.924 55.0099C209.924 55.7676 209.651 56.3725 209.103 56.8234C208.556 57.2745 207.813 57.4998 206.875 57.4998L206.875 57.4995Z" fill="white"/>
</svg>
